<mxfile host="app.diagrams.net" modified="2024-01-18T07:39:53.477Z" agent="Mozilla/5.0 (Windows NT 10.0; Win64; x64) AppleWebKit/537.36 (KHTML, like Gecko) Chrome/120.0.0.0 Safari/537.36" version="22.1.21" etag="bToDi81JOCacT6O3lZZq" type="github">
  <diagram name="第 1 页" id="n3cz7YaiwL-0tvy8QLVX">
    <mxGraphModel>
      <root>
        <mxCell id="0" />
        <mxCell id="1" parent="0" />
      </root>
    </mxGraphModel>
  </diagram>
</mxfile>
